/* XPM */
static char *_b5633eb26b04b52fa68a538197366ebMZsCmkutoXmmWUdK[] = {
/* columns rows colors chars-per-pixel */
"64 64 256 2 ",
"   c #030101",
".  c #0B0201",
"X  c #080708",
"o  c #120200",
"O  c #160A07",
"+  c #181609",
"@  c #070717",
"#  c #181718",
"$  c #121114",
"%  c #271708",
"&  c #241A18",
"*  c #270C04",
"=  c #122A16",
"-  c #3A281B",
";  c #2B2917",
":  c #040529",
">  c #1A1925",
",  c #081738",
"<  c #0C162B",
"1  c #251B2B",
"2  c #1B2C2D",
"3  c #292727",
"4  c #362A27",
"5  c #38352A",
"6  c #272A38",
"7  c #383836",
"8  c #2D3133",
"9  c #503413",
"0  c #6D3B18",
"q  c #47392B",
"w  c #463937",
"e  c #4F342D",
"r  c #57250B",
"t  c #1A412D",
"y  c #344D36",
"u  c #6F4E1A",
"i  c #47443A",
"p  c #57483C",
"a  c #5A5439",
"s  c #52492A",
"d  c #705130",
"f  c #6C622D",
"g  c #0A194B",
"h  c #132952",
"j  c #373847",
"k  c #273656",
"l  c #29324D",
"z  c #172E68",
"x  c #273969",
"c  c #0B1E60",
"v  c #453C47",
"b  c #4A3F54",
"n  c #3A4545",
"m  c #35524C",
"M  c #364878",
"N  c #33486E",
"B  c #3C6455",
"V  c #474648",
"C  c #554949",
"Z  c #47564A",
"A  c #57564A",
"S  c #494857",
"D  c #544C56",
"F  c #4B5757",
"G  c #575758",
"H  c #64554A",
"J  c #655B58",
"K  c #6E554D",
"L  c #596658",
"P  c #4C6A53",
"I  c #696759",
"U  c #786A59",
"Y  c #736D50",
"T  c #495769",
"R  c #565867",
"E  c #485779",
"W  c #494E6B",
"Q  c #665C65",
"!  c #715F6B",
"~  c #596667",
"^  c #5A776C",
"/  c #586477",
"(  c #5A7A76",
")  c #4C6C6C",
"_  c #666767",
"`  c #756A66",
"'  c #677468",
"]  c #787468",
"[  c #676775",
"{  c #687477",
"}  c #787777",
"|  c #746B77",
" . c #88572D",
".. c #8D6F35",
"X. c #975F2D",
"o. c #846947",
"O. c #9A7447",
"+. c #866B58",
"@. c #887658",
"#. c #987958",
"$. c #916E48",
"%. c #A87A4F",
"&. c #877868",
"*. c #957B66",
"=. c #867B78",
"-. c #8E716D",
";. c #855B52",
":. c #678578",
">. c #778778",
",. c #72866E",
"<. c #5A8471",
"1. c #948955",
"2. c #AC8C55",
"3. c #978668",
"4. c #878679",
"5. c #968879",
"6. c #989478",
"7. c #8C8E74",
"8. c #A78968",
"9. c #A89677",
"0. c #B59A76",
"q. c #AE8F6E",
"w. c #B7A676",
"e. c #B4A971",
"r. c #A3A369",
"t. c #C99B6E",
"y. c #CDB076",
"u. c #E6B179",
"i. c #D09D5E",
"p. c #DBC67D",
"a. c #375287",
"s. c #495B8A",
"d. c #576787",
"f. c #586894",
"g. c #516D91",
"h. c #656C87",
"j. c #787A87",
"k. c #6D7591",
"l. c #4F6AA2",
"z. c #6D78A4",
"x. c #867D89",
"c. c #58868A",
"v. c #6A8985",
"b. c #788787",
"n. c #798597",
"m. c #769996",
"M. c #72938F",
"N. c #78A695",
"B. c #7985A6",
"V. c #758FAF",
"C. c #72A4A9",
"Z. c #748DC8",
"A. c #888888",
"S. c #958A87",
"D. c #88988B",
"F. c #979789",
"G. c #868998",
"H. c #899897",
"J. c #969896",
"K. c #958996",
"L. c #A49987",
"P. c #B69B87",
"I. c #A49B98",
"U. c #AE928D",
"Y. c #9AA89A",
"T. c #8DA795",
"R. c #B9A689",
"E. c #A8A59A",
"W. c #B7A898",
"Q. c #B2AF90",
"!. c #8897A8",
"~. c #9799A7",
"^. c #989BB5",
"/. c #8A92B1",
"(. c #A99EA9",
"). c #98A9A8",
"_. c #9BB3A9",
"`. c #94A6B8",
"'. c #8DACAD",
"]. c #A8A7A6",
"[. c #B5AAA8",
"{. c #A7B3A9",
"}. c #B8B4A9",
"|. c #A6A7B6",
" X c #AAB7B8",
".X c #B9B7B7",
"XX c #B5ACB8",
"oX c #C5A788",
"OX c #C3AA94",
"+X c #C9B698",
"@X c #D6B897",
"#X c #D2B48B",
"$X c #C7B9A8",
"%X c #C4BAB7",
"&X c #D0B4AB",
"*X c #DAB2A0",
"=X c #B8C5B8",
"-X c #B1C5B2",
";X c #D3CA96",
":X c #E9D58F",
">X c #F8E697",
",X c #C9C2AA",
"<X c #D7C8A9",
"1X c #C8C6B8",
"2X c #D7C9B8",
"3X c #D7D5BA",
"4X c #D0D3B5",
"5X c #EDD3AF",
"6X c #F3E9B2",
"7X c #8B99CA",
"8X c #96A9CD",
"9X c #ABB6C9",
"0X c #B7B8C7",
"qX c #ACB0D0",
"wX c #ABB8E8",
"eX c #9EAFE5",
"rX c #C8BDCD",
"tX c #B8C6C6",
"yX c #B3C8D2",
"uX c #B4C8F1",
"iX c #9FC2C4",
"pX c #C7C8C7",
"aX c #D4CBC7",
"sX c #CBD3C9",
"dX c #D8D7C9",
"fX c #C7CAD5",
"gX c #CBD5D6",
"hX c #D8D9D8",
"jX c #D4CBD2",
"kX c #E7D8C7",
"lX c #E5DAD7",
"zX c #E8D3C9",
"xX c #DAE5D8",
"cX c #CCE8CF",
"vX c #E8E5D9",
"bX c #F9E8D7",
"nX c #FBF5D8",
"mX c #F4EECB",
"MX c #D4D8E7",
"NX c #CAD4F1",
"BX c #E8DDE4",
"VX c #EAD5E6",
"CX c #DAE5E6",
"ZX c #D9E8FC",
"AX c #CEE7EB",
"SX c #E7E7E5",
"DX c #F6EAE5",
"FX c #EAF4EA",
"GX c #FBF9E9",
"HX c #E8E9F4",
"JX c #EBFBFA",
"KX c #FDFDF4",
"LX c #F4FEFE",
"PX c #FDFDFD",
"IX c #F8F6F7",
"UX c #F4EEF4",
/* pixels */
"9X`.MX0X~.MX8X^.k..XOXOXw rXlXJ z./.G.MXj.K.yX XJXKXCX=XtX'. Xn.H.H.'.JXLXhX.XDXGXFXm AXl j.yX: | ~.  $Xq.*XKXhXb |.n.gX!.PXQ X ",
"8XLX XHXqXqX~.AXMXD IX5X%X(.K.jXR b.XX6 tX) PXIX XW fXPXJX( CXS )._.H.LXj.{ / / 9XLXT.(  X XP '.N._.gXS.4.1XdX3 H.JXn.8X!.'.PXI.",
"hXK.6 W PXqXqXB./ SXGX,X3X$X_ hXF ~ jXH.M.C.LX{ n fXF R JX'.v.AXT.P PXhX7 J.vXS.6 AXAXv.N.:.<.JXT.^ '.:.  @.q.0.& k f.z.jX~ V.uX",
"fXd.l l JX).9XMX0Xx.DXaXG '.yXm AXN.c.'.:.gXHX` @Xq.%X< 0XPX-XP H.yXPXQ G aX%.5Xw jXxX>.fXhXPXPXKXSX{.tXA.bXrXPXj.S PXG.R vX(.x.",
"MXjXG fX0X|.j.^.^.| R.+.6 !.M.tXPXPXsX_._.LXBXC OXq.zX! BX|.{ 9X^.W UX$X@.@XDXD Q PXT.m KXSXH.8 { {.LX^ :.GXnX+Xv @ j.d.uXN b. X",
"/.uXZXuX!.tXfX0XG PXhXKX>.gXPXPX_ ~.FXLX) '.LX7 D 5Xi.u.nXF.3.&X%XU.W.GX<X#Xt.oXhXLX( T.PX[ 6 qXk.> IXxXy -XkX$.&XzXO J.PXs.wXs.",
"pX[.|.^.HXh.).gXi aXPXLX) yXAXS !.S W LX_.B LXJX2Xq.$XzX6X%.5XO.t.5X#.nX@X+XIXPXfX)._.JXCX& +X8.,X&.G JX_.,.  pXDXKXrX@ > $ PXj.",
"!.V.9X=X{ LXh.G 2XP.1XH.Z JXXXQ mX<Xw ].LX].A.%XIXGX2.#XnXW.&.lX1X7 jXIXq.q.nX&XQ b S |.HXJ *Xq.&Xi | PXH.:.# 9.q.6X0.*.lXD X 7 ",
"/.ZXB.LX~.~.~ SXKXFX# n HXLXn pXoX#XJ rXyXG ! -.oXGXL.' CXR < R l j n.~.j BXKXo.<X5X5.=.nX<X#.5X=.  lXSXm N.,X$XP.0.O.#XmXR.p IX",
"V CX6 0XR D D zXmXoXS.{ H.LXA.3 nXR.+XGX5.5.mXR.j |.R j.V K.PXS.[.PX} [ rXj T @ F.&X@X#.DXDX@XO.8.}.KXM.>.:.X ].  X gXLXbX8.oXnX",
"`.1 fXD [ PXOX1.@X&X[. XD.gXHX-. .t.vXDX8.@X$XJ J H x.PXqX/.LX!.yXLXk.ZXPX| ].IX> W @ rXKXOX#.DXKXSX]. Xb.tX>.].x._ :.JXHXy *X2.",
"u.:XGXkXq.bXPXD.  pXS x.m.).KXKXKX$X@.GXhX< [ S PXBXj.PXdX,X<X<X1X$X3XkXxXb.JXAXG.HXSX3 b.4.<X5Xt.5.  m.t N.M.m N.T.t m )   . OX",
"W.<X#XQ._ JXCX:.N.L sXT.' M.+ L.2XzX5.E.#  XPXn.0XFXmX1.f 6XX -X} 1 GX% r.6X}.}.(.PXHXQ x.j PXGX#.y.zX[.D. Xi tXLXLXxXA.-XD.S.x.",
"h j 2X` 3 h.:.v.JX>.B m.<.T.+XoX@XDX! ~.~.~.KXdXxX+ e.r.u mX1.nX3X#XmXs 6X3.o FXE.1XG.9XPX].  8 I oXu *Xo x.KXKXb.F sXFXxX2 CX# ",
"U.S.].].H.gXhXKXpXKXPXS.` U. .&Xj l 8 PXvX}.Q.i mXa e.6XDX{ ZXk. XqXn.JX,X;X:X>XX ] mX6X_.j.SXe C $X..#X&.(.pX  S D @ } PX' y cX",
"q.OXX 0X>.JX).[ j j rX0X&.R.9.U.H SX^.Y.4X3XQ.- 6XnXyXx NXh wXN V.z.s.uXc ZX!.}.;XnXy 7 nX6.KXPX  G.P.$.X.5X+Xe OX2XA.7 hXE.P 8 ",
"Y.~ CXA.H.JXD } jX` U.nX2.O.S.6 j.KX;XmXy X 6XnX/.z ZXh iXN Z.E V.z.V.V.E uXc wXH.1X6.R.R.W.tX/ XXC . dX}.nXX.u.u.0 2X4 E.KX}.3 ",
"8 Q D n.IX].Q &X .5X$.GXzX-.# CXj.~.A.I 5XkX'.N ZXh uXE V.f.V.s.7Xf.7Xl.8Xz.f.wXg uX4XnXX j nXw.GXIX3 SXDXt.<X*.q.5XC # hX{.y -X",
"0XG.Q ! E.xXV E.&X#.y.#.nXK.V IX2XnXU L sXd.JXg 8Xk.f.B.f.z.l.M V.a.Z.a.7XM wXM /.NXg fX5X>X,.3.tX~.> w 2.X.5XW.+.o w } GX^ D.) ",
"ZXN fXb.P CXj.b v OXzX+.` J x.G.tX+ >XmXNXg x.wXz eXx Z.z l.x z.l.l.a.a.l.l.Z.a.NX< ).tXL xX@ C 6Xf GX=.V FXhXPXUXI.DXDXvX7.E.A ",
"W ^.@ G.[ CXPXhX.XDXMXKXV sXGX;X:Xs hXS b.NX, eXa.l.a.f.{.;X;XoX@X;X5XaXG.f.x eXa.f.ZX, k.UX5X>XY ,XDX%X  GX#X%.5.LX).,.y -XP _.",
"j.{ XX~ >.:.,.sXdX&.5.$X$ ~.gXI a mXI.NXg Z.C.z z.N =X<XY C XX> v [.5 5.mX2XB.s.W uXc Z.ZX2 Q.R.  dXj.~ j.* 9 OX  T.= P T.JX_.<.",
"1 # { P {.=X( ) | ` I.X UXL.;X2.@.VXg s.NXh V./ | 4X+.U.Q 1 IX-.rXPX1 rXQ 6 lXF.f.x B.wXc a.VXkX:X>X;XdXKXw -.&X].$ CXUXGXdXmXmX",
"A.(._.xXvXdXGXdXw %X%XC SXKX&.Q.3XJ.ZXl k 8Xx B.5X@.  %XDXU.OXrXS.OX2XGX-.D 6.2XJ.h.V.g ~.HXM h vX  A CXXX> U 3X9.i PX[.A   F sX",
"T.^ vXXX6 1 R UX] =.J b | .XC _ NX, W NXs.g b.Q.8 IX2XOXR XX6 ).D K.x.Q zXPXBX  W.A.g eX7X, M NXJX1.p.:Xa rX> e O.#XGX> $ 0X# v ",
"M.{ xX7 } K.G BX2X+.3 KXdXe.p.:XF.AXg.c B.W }.K * &XK.(.n pXsXkX1XPX| 0X_ I.U.-.@.aX!.M z qXZX{ y mX1.&.UXPX} G dXbX#X..y.2.P.& ",
"S MX!.i t.O.t.8.GXFX2 A.FX7 O CXx c /.`.l qX=.2XmX$Xv =.GX[.tX X X_.pXPXD K.rXIXXX8 vX_ /.f.g z |.HX$ m pXXX$ ' KX<X#X%.#X..&Xw ",
"n {..X7 9.#X8.q.o.;.! 4.e.:X#XW.pX`.M x _ $X. Q [.  DXaXT.m.C.'.C.C.m.'.PX(.o VXK * 2X4.l d.|.jX>.' 6X>XQ.I %Xo %.X.i.d *X(.6 S ",
"_.L FXQ & 7 *.*Xq.p 2XPX~.# 1X8 , a.V./ ] 5.OX%X(.S.].].g.C.`.iXyX`.C.c._.-X1XJ.aXGX8.,XT z.M g g `.rX. H.PXPXI E.}.nXE.*.. } 1X",
"JXy =XKXE.` vXpXPX' 7 ].W.q 1XhX.Xk.M x ].9 &X[.  hX-X^ m._.hXsXxXhX_.m.c.iX.X. <XU.. }.E M B.0XMX.X&Xf <X1.7.  mXkX+XbXvXlXnX4X",
"[ R b.:.sXdXO.O.K w [.L.y.:X7.< N s.d./ {.& +.&X[.1XH.v.{.SX.X5 4 }.hX_.v.k.sXaX&X-.a .Xh.N a.z c l :Xy.y.Y %X} O -.%.0 a cXB y ",
"I   D.' L A.O 3XV V PXPX8 > hX|.G./ N E }.Q.KXC _ CXM.V.fXjX. s i 3 dX1XN.b.pX_ > PX<X6.n.d.).|.tXhXFX  # FXKX1X  F.2XA a D.t _.",
"%.8.4 } ^ Z 9.9 P.& C S.:Xy.XXm E s.E k.I.o S.OX}.4X6.6.mXa q @X9.9 ' hX'.m.tX1XOXU.O | ].6 N z c , r.:X>X1.>.  @.q.r #X,.= 1X+ ",
"q.P.D { :.y w. .*.I J.E.] ] hXj.j.h.T h.(.K 2XK ] {._.T.sX4.X F.6.O L.4XM.v.tXJ 7 zXx.5.J.[ ~.0X9X(.2XY 3.Q.}.7 -.&X;.P.4.L {.A.",
"| . >.^ ^ ` o rXC $ KXKXV G pXT E a.x N W.R.DXI E.fXk.M.{.dX7 4 4 v lX XH.{ dX%X=.DX$XS.j.h x x T G.UX& 5 vXPX%X  F.2X9 X {.= <.",
"*.C :.b.CXDXq.d %X7 w Y p.p.L.Z } k.h.G F.. p OXI {.v.( ).sXDXW.I.vX=X_.m.'.].e OX;.O L.( / !.G.a.W 6X>X>Xf A.3 @.+.0 8.+XGXF.A ",
"JXy =XIXD.F hXHXFX4.x.VXS.X {.9Xf.N k l S.A vXE.7 PX).b.M._.Y.fXgX).H.M.M._.LXn %XKXa }.W c h E T.gX{.  F.%XI.; KXaXpXlX=X7.vXDX",
"'.7 MXD @ D #.t.d * 1XbXr.e.3X; l z./.l &.9.U 4..X; %X{.C.M.c.C.C.c.c.c.sX}.. aX! U 8.3.j ^.9XE : S 6X..Q.FXPX& 3.2.5X@.i o 3 D.",
"V {.sX4 @.t.8.#.3.$X@ V 6.3.H jX9XN c a._ I.X K.jX` J.J.hXJ.( m.M.<.).aXW.[.A aX5.o W._ T g k 0XhX4Xr.;Xr.4.A w q.0 u. .0.<X4 G ",
"7 Y..X4 0.$.%.0.DXhXV dXPXp a W.< f./.{ , G.].9.OX&XD G F.E.vX%X1XUXE.aXV D P.*XQ.L.].< R `.d.: n UX  S hX.XO ].DX5X2.i.i. .2X  ",
"v.y sX3 5 |   %XOX .. J.&.w.y.1.}./.c z V.h 9.Y . &XzX&X+ A.V A.{ _ ' # %XzX%X. f +Xl V.x g ~.aXr.6X:Xy.2XKX7 ] L.3X+Xd w.5XC 7 ",
"~ Z .XrXb > F.lXe L.S.. A.MX3 V fX$ A.|.h s.~ Y.6.6.K *.2X$XV 5.S.-.$XbX-.;.I.` L.=.W g  XG.: l fXX f R.D S F 5.0 P.jXX j l $ { ",
"] 7 b.D.dXlX=XD.; L I.$ KXkX2.#Xw.1Xj.: k.z.h S &.+X  =.[.e UXU.OXDXe VXR + 0.0.R , ^.k.: ~.fXY >X..3.vX.XO 0.oX=.$ KXvX=.s 2XGX",
"7 X ^ y P ,.= m { $ -.9 v G 5.s . 3X1 8X/.< V.l k j.+Xw.w & XXX & Y.o A r.;X4.6 m !.: 7XqX: >.4X% ;X6.L.DX. o.R.w L :.Y.vXGX1X&.",
"6 | ` A L b.F.SXIX&X*.nX4 S.FXF.2.e.2Xx.: wXW x z., M { r.e.2.O.1.t.q.9.] T g B.g d./.: !.[.p.p.  ).~.~   ] u  .% =Xm 2 = _.= B ",
"B.k 4 i Z D.hXJ o [.kXE.A J }.I <Xo 1.r.J.b.@ qX, k.x M h N / h.d.m s.x N s.f.k ^.X |.~.X 1X9 ,.6Xe.GX[.7 KX2X2XGXKXGXJ.D.,.' ^ ",
"MXj } A.y xXA . +.+.q.u @.@.O %X1Xw.r.2.rX< ^.E l n.l /.l d.N a.s.x d.g 8Xh 8X, z.~.: [.;X6X% i ).w F.; r K <X<X&.  4.dXFX5 T.= ",
"| Q 8   {.xX# F.O.i. .P.aX$X& lX}.I =.. :X6X~.: 9Xk h.T E / d.d.E N z.k d.E P `.: qX&.,Xq % 6Xe.dXHXX {.<X9 t.d +.I X i vX9.y -X",
"A o C C L xXj V 9.1.d &X%.0 8 6 8 =XQ.<X5.* e.Q.].: yX> n.k j.k./ E / j.6 9X: rXG D.w.w.Y H ].7 aX} + dXsXDX$.2.2.O.L.$ 1X}.L + ",
"t.*.` D F D..XO 7 @ S aX+.*.8.*.* BXXXI 6.a #Xu e.W.XX: 8X< /.d.T h.g qX: qX4.+Xy.5X  + 6Xw.bX%X  & q &.o.5Xq.1.%.O.W.  XXaXA.+ ",
"t.#.C 3 >.L dX$XH 5.kXaXO S.r q.4 @ 4 lX2XQ.6.  y. .2.#X,XG pXA./ pX^ -XL.w.2.p.o 1.;XQ.j.R lXF.w L.#.0.d R..X  C S.X ' FXL = }.",
"U . &.W.. I y ' sX1X' ~ L P P.@.o.+Xi =.~.A sXw.;Xo 1.2.* 5X1.w.e.O.>X; 2...O ;X7.F.I E.KXI   X q +.* U.X | KXQ.a % &.lX=X= -X  ",
"} + o.d e 8 ).2 D.y P <.= {   C 6.2X-.C   J.PX| A.3Xy...9 :X. 3.3.X :X% f :X0.F.D.UX).Q } 5 lXW.Y w.9.Y ,.6.L {.CXcXxX7.F.,.} } ",
"#Xo.%XdX$.*.KX).  G _ 3 =.A }.2XhXW.r <XjX$ w 4 PXtXj jX<Xr.Q.R.6.R.1.;X$XV gXsXV .X(.. U s R.@X .*.& ~ t P t y D.T.= 5 L + o w.",
"zX7 &.dX4 5.OX-.% ` 4.7 _ y hXU u ..Q.$X%.d -.w 7 7 7 KXH.} PXK.j.PX[ /.PXD } [.. J   $XbX#.o.bXlX$XC 4.L ,.' } L ] L xX%X% 0.u ",
"1 > A - & G *.u #XO.+.] ; _..XX -.L.u 5X#.o.t.q.% J.| 1 3 # lXw 4 dXi O Q $ F X 6.w.t.d 2X2X2.u 3.4.GX5 P H   1X    pXvXt.1.y.kX",
"_ _ .X6 BX$ $ _ GX,XA   S.xXw K 2.%.d _ fX3 3 p o.5X0.9 2X]   S G   7 I.5 W.mX..2.q.q 9 5X8.2.0.d . }.1X+ I q.$.Y 2. .i.6XU i FX",
"eXk Q D S h.pX. 5.@.K &.+ b.F.; 8.oX& v xX] L A.jX1XO.O.5X+.K 5.*.Y *.@X..0 bXU.i . C I.%X4 0.d 6.a 3 xX] A o @.#.*XY e S.O 3 3 ",
"& F.I I I } 1 [ 7 q =.DX,.= xXi > $   =X_.= fXaX#.$.#.0.5Xu t. .r *X0 @X$X=.F.lX1X{.L Y.aXO @.5.q.- H 4XL y   I.1XKX} $ 4 & PX7 ",
"4.C | ~.[ _ A XXQ V aX[.} I I.sXA.A.}.GXI = dXY o 9.O.u +XW.O _ I.9 i 5X%. . .r Y vXm Z 1X]   } G   sXY.= 7.5Xf *.U   J.PX< z.h ",
"W G.A.1 H._ } w G v * K o ; Z y D.gX,.m ,.F.dX. 3.d +.p 3 sX] V n y T.L.- 9.W.5 & =XQ.X -XsX] . A sXGXi Z GX4XW.q $ m.6 h._ I 7.",
"I U..   O .XG | |.Q 9 W.] 3 F.A A ' P <.<.Z hXp 9 x.5.* } pX' P t >.kX,.  [.u @Xo ` dX7.Y I 4XdX1XE.Z H.V I.5.bXi w PXF Y 7.G ~ ",
"Q ~.R   # %XC | j @ J.UX0 0.o 8 G . I.+ P Z 4.aX& 8 > = 1X7.; >._.= I kX- % U.C 3 1X>.= B P = T.a = P s . 9  .0 o ~ < ( G.R |.[.",
"Q V (._ ].} _ _ Y.I.O L.=.p 5.4.7 _ _ > } 7 A }.1XF.=.%XdXy ' 3 O S.3 pXF.J $ n Z 4Xi ,.I V ] 5 i } J S.Y L.hX1 J KXY A.V pXV . "
};
