/* XPM */
static char *_efd698d7cb4475bcbb75425e1c74adbr3jFjUU9prAGb4nW[] = {
/* columns rows colors chars-per-pixel */
"40 40 18 1 ",
"  c #321006",
". c #3C1204",
"X c #441606",
"o c #4C1906",
"O c #571A06",
"+ c #551D06",
"@ c #5C1C04",
"# c #5C1E04",
"$ c #612006",
"% c #682106",
"& c #792406",
"* c #784F3F",
"= c #A42706",
"- c #CF1605",
"; c #DF3B08",
": c #FC4F0D",
"> c #F57607",
", c #FC9A05",
/* pixels */
":#@@#@@##%#,,,:-#%&&&%%%.-:;-.#&&&&&#o.-",
"-###OO+@##$-;,--&&&+#@#%% :;-+&+##@&&&% ",
"-=##@#XOOoo-;>-=%%%####@%o;-=%%###@%%%%$",
"--=$##Xo@..-;:-+&%@##@@@$%-=+&+###@##$%$",
" -=#%#%O..--;:-.%@XOO+@##$-=@%##@O+@@+X%",
"#,>: ....--,>:-..O%++@+##%-=+%@#O++O#$%%",
"#,;---.&---,,,--.+%#OO+@#$-&.%$###+O#@#@",
"+,>--=&---->>,-= oOoo+#$$$;-&O%%#$#O++#o",
"o,>:-o---::-;,-......@$%%#:;- %%%%@@X+#.",
"-,,,--,,,: $$#+-----....#.:;--..o$..X..-",
",,,,,,,>: %###%+:::--.&----;::--;:-..&--",
"::::::+o..%######=-:--=&&$-& :,,,,:--;::",
"==;>==%#o.%$$#$@#&&:-=&$%#==&>;>:>:--;;=",
"$ =,%&&%#.%%$#%####:-&$+##o=:,----:::--#",
"+---&&$%$#.#@%%..&-,-#$%#O:>,-&&&& ::=$+",
"o-=+&@#@$$-...  -:,-.-& $+:;-$$$%&& -=o+",
"- X@%#@##%.-;::::::-#----:-=#%#%%$&#.&--",
";=&o%#@##@.&-;;;;;;=#=-;;>&%$##$$%%$o&==",
"::=.%@@###X &------#%$=:,, o%#@##$%%%%%o",
" :=..@#@#..:;-&&#++#%%#+-,:=.XX#######$%",
"-:;- $%%%.-:=#&+#O+O#$$$-,,:--.X+@###@#.",
"-:>,--...-::=###@+++###%#-,=@--.Xo#XXX..",
"->>,&=&&&;>=&$#O+O+O#+@#o-,>o=- .Xo.X..&",
"-,,,.X---:,o#%#OOOOO#Xo$.-,= o-  ......-",
",,>#%@+oX:,$$$#+OOO+XXX..-,,,:::::::,,,,",
",,>:o+ *,,,#$%#OXo+XXX..-:,=o+-----,::::",
"--;:--::::,,= .#XXX...&--:o#&&&&%#------",
"=--;-=====>,>&.oX...&&=-;=$%&%$%$#==-===",
"$----%&&& :,>:. X...----:+&&&+#$$#%$-=#$",
"$-=#&%#### ,>:,:-;::-::: %&%##+####$$o.#",
"#O%&&.@##@o:>,:--=+O+.=:+&####+OOOX#$=-#",
"@#$%+%####$,>:-%&&&&&$=::.XXX#+OOO+#%=-.",
"o#OO#%###oo>:;=%&&%%%$==:&&%XoOOOO+#o=;.",
".+X.%%###..:;-&&&%###%#+:--&XXOOO+O#.=:.",
":,:: .....:---&+###O#%%% ,---X#@##.. =:+",
"---::::::---=$##+OO+##+X.:,;-X.....@:::+",
"O &-+O...: ....@###%%XXX+ ,>:------:,>#+",
"o&=-$%ooo:= O&.ooooOOX%&==,>>;-=&=&;>=+#",
"o---&&%$#:: &-.....X..&--,,,,:-....-:=o$",
":$$$$%%$$@,,;--:------&.-:,>:-.$###o:;--"
};
