/* XPM */
static char *a30db32cc99f42dfd46b2999aa655aa16TzgWy9Ga79mBkjl[] = {
/* columns rows colors chars-per-pixel */
"40 40 222 2 ",
"   c #651F1F",
".  c #4E2A1C",
"X  c #5E2A1D",
"o  c #662D1D",
"O  c #6A2A19",
"+  c #6A2619",
"@  c #702E1E",
"#  c #6D301D",
"$  c #72341E",
"%  c #783218",
"&  c #592A22",
"*  c #5E352B",
"=  c #622D22",
"-  c #682A24",
";  c #722E22",
":  c #702C2D",
">  c #653225",
",  c #6B3324",
"<  c #66362A",
"1  c #6C352C",
"2  c #6C3A2C",
"3  c #673B2E",
"4  c #743424",
"5  c #7A3625",
"6  c #753A25",
"7  c #7B3A25",
"8  c #73362B",
"9  c #7B362B",
"0  c #743B2B",
"q  c #7B3C2B",
"w  c #6A3732",
"e  c #653E32",
"r  c #6C3C32",
"t  c #6E3D38",
"y  c #713532",
"u  c #753C33",
"i  c #7C3E33",
"p  c #753B38",
"a  c #7B3E39",
"s  c #783433",
"d  c #6E442E",
"f  c #75442E",
"g  c #7C422D",
"h  c #404132",
"j  c #6D4233",
"k  c #6D473C",
"l  c #744333",
"z  c #7C4433",
"x  c #7D4A35",
"c  c #75453C",
"v  c #7C443A",
"b  c #73493B",
"n  c #7D4A3B",
"m  c #740C33",
"M  c #7C4B43",
"N  c #7F4E49",
"B  c #784841",
"V  c #7C5246",
"C  c #785147",
"Z  c #833525",
"A  c #833A26",
"S  c #8C3B26",
"D  c #83372B",
"F  c #833D2B",
"G  c #8A3D2B",
"H  c #903F2A",
"J  c #833D31",
"K  c #8A3C33",
"L  c #903E30",
"P  c #83432C",
"I  c #8B422D",
"U  c #81482E",
"Y  c #8A482E",
"T  c #92432E",
"R  c #824433",
"E  c #8B4433",
"W  c #844A34",
"Q  c #8C4A34",
"!  c #82453A",
"~  c #8B463B",
"^  c #844B3C",
"/  c #8A4C3A",
"(  c #924432",
")  c #934A35",
"_  c #924C3A",
"`  c #9A4E3C",
"'  c #994835",
"]  c #85513A",
"[  c #8D513E",
"{  c #935036",
"}  c #93533C",
"|  c #9A533D",
" . c #92593D",
".. c #9B593F",
"X. c #854542",
"o. c #834D42",
"O. c #8B4D42",
"+. c #834F49",
"@. c #8A4D49",
"#. c #944E43",
"$. c #904740",
"%. c #835343",
"&. c #8C5343",
"*. c #865A47",
"=. c #8C5A46",
"-. c #85544B",
";. c #8C554A",
":. c #85594D",
">. c #8B5B4D",
",. c #935443",
"<. c #9A5544",
"1. c #945A45",
"2. c #9C5B44",
"3. c #94540A",
"4. c #9B554B",
"5. c #925C4C",
"6. c #9C5B4B",
"7. c #8D5C53",
"8. c #815852",
"9. c #935C53",
"0. c #9A5D52",
"q. c #975C58",
"w. c #A25A46",
"e. c #A55B49",
"r. c #A25E53",
"t. c #8F614A",
"y. c #94634D",
"u. c #9C634D",
"i. c #9A684F",
"p. c #8E6154",
"a. c #8D6259",
"s. c #946355",
"d. c #9B6354",
"f. c #95405B",
"g. c #9C655A",
"h. c #966B5C",
"j. c #9D6A5C",
"k. c #9A6B57",
"l. c #A3634A",
"z. c #A6404C",
"x. c #A26253",
"c. c #AA6555",
"v. c #A46A55",
"b. c #A3655B",
"n. c #A56B5B",
"m. c #A96B5C",
"M. c #A86756",
"N. c #B36E5E",
"B. c #A3745D",
"V. c #AB735B",
"C. c #AE7057",
"Z. c #B6785F",
"A. c #976862",
"S. c #9F7263",
"D. c #9E7468",
"F. c #A36D62",
"G. c #A66561",
"H. c #B16E60",
"J. c #A47263",
"K. c #AB7540",
"L. c #AA7B63",
"P. c #A6746A",
"I. c #AB766A",
"U. c #AC7A6B",
"Y. c #A67869",
"T. c #B37463",
"R. c #B27A66",
"E. c #BC7B40",
"W. c #B3766B",
"Q. c #B37B6C",
"!. c #BA7C6D",
"~. c #B97560",
"^. c #AD7F72",
"/. c #BE7E75",
"(. c #B17871",
"). c #C37C66",
"_. c #CB7F6D",
"`. c #C37E6E",
"'. c #A8826F",
"]. c #B2816D",
"[. c #BD816E",
"{. c #AA8478",
"}. c #B58273",
"|. c #BC8575",
" X c #BD8B76",
".X c #BB857A",
"XX c #B38A7E",
"oX c #BB8C7C",
"OX c #B58871",
"+X c #C1856D",
"@X c #C58271",
"#X c #CA8473",
"$X c #C48B74",
"%X c #CB8B75",
"&X c #C2867A",
"*X c #C28B7C",
"=X c #CA8C7C",
"-X c #C5927E",
";X c #CB937D",
":X c #D1947D",
">X c #D69077",
",X c #BD8B82",
"<X c #C48D84",
"1X c #C88481",
"2X c #D18F83",
"3X c #C39384",
"4X c #CD9482",
"5X c #CB9489",
"6X c #CB9C8A",
"7X c #C69984",
"8X c #D29A83",
"9X c #D19C8C",
"0X c #D89C89",
"qX c #E19981",
"wX c #D3A28E",
"eX c #DDA489",
"rX c #CFA090",
"tX c #DFA798",
"yX c #D8A797",
"uX c #E2A98C",
"iX c #E3B6A1",
"pX c #FFCCBE",
/* pixels */
"k e e j b j %.n l l r J.e 1 * w c p w B & * . e {.C j k 3 < > X > n 3 &.l rX;.> ",
"V p.D.Y.}.s.j.J.K.J.J.oXU.P.Y.Y.g.q.:.S.7.^.{.h.XXh.h.s.k.Y.3XoXK.K.j.B.n.tX3X X",
"^ ] &.5.6Xv.1.[ W W z i ! 0 O.v o.7Xf.v v J : J _ ,.3.! ] y.3XB.&.[ 1.&.,./ ! P ",
"n -.;.&.5X3.W ,./ ,./ ; 0 8 O.;.%.oX;.v ! #.~ D J 4.r.O.=.y.7Xk.[ ^ / g R 4 W ,.",
"B N B B <X;.u v 1 ! 1 1 - w B N 8.{.N t p y :     s @.;.f.7.,XV 7.;.+.u 1 2 < v ",
"7.-.o.;.5Xb.! 1 v O.v 9.@.9.@.+.N ,XA.+.q.X.! b.1XG.@.n @.;.,XXXz ;.9.n.F.&X5.b.",
"X./ / ,.z.F P F E I E N.6.3.~ P #.R ~ ~ D ~ ,.q #X6.<.<.~ ~ } E Q _ _ | | #XE w.",
"3.R q q z 6 P F F 7 Q T.<.~ R z 9 D _ D 0 g z / $X6.,.2._ ` | ` E Z Z Z I _.D w.",
"N B k j j 2 2 l l 2 v P.M n w t p y u & w r b C XX:.%.n = - a ! 8 9 a s z W.9 - ",
"A.a.8.V >.n n n n M ;.Y.p.f.7.7.-.-.+.-.f.-.-.S.yXh.:.s.F..X<X3.0.0.0.3.r.&X0.5.",
", 6 ^ 1.[.v.[ W P Q / ^ z R g , x ].i.x ^ } _ I _ D _ } { u.;Xv.E I G Z G ' F I ",
"f f W W +Xu.P 7 P P P 6 q P g W f ].] g g D D L G D ' F $ U $X[ Q T G A K A Z I ",
"2 r c v }.d.X.R , 4 0 v ^ u 1 < d '.*.m u 9 9 K K D K 9 g n  X] 9 9 9 8 J 8 4 6 ",
"f.j.F.j.=XF.&.R Q.g.O.X.u 8 a ;.%.,XI.-.O.#.O.J $.~ 4.4.3.1.&XF.3.3.6.6.b.T.0.6.",
"! R i q / ,.,.,._ _ <.H.#./ J 9 q ~ / J R @ ; R H.4.#.<.<.` ` E _ ~ _ _ e.#Xr.<.",
"0 z z J R ~ ~ I R J ~ l.9 R i 9 ~ ,.4.9 9 6 q R R.4._ #.` L D ( R P F 9 / =X} / ",
"u l 2 , > , 0 , z 8 i g.v , 0 v 0 u ^ O.! z g 0 ].&.R ,.q 4 q + q q q ! x $X1.] ",
"2 l o.5.g.g.>.;.&.;.d.|.b.O.v 0 ! o.^ v %.u.v.v.8Xv.[ [ / / H.4._ | 6.v.d.;Xd.1.",
"R g / ,.x.6.q q 8 5 O 6 4 4 q R 9 x.m.,./ } } l.l.Q P Q | | #Xe.` ` ( ' G | A A ",
"&.R ^ R m.V.q ~ i / 9 9 q J J J R 0./ , q } / Q <._ ) Q ~ K #Xc.#.` L L A G G ' ",
"p y v a G.^.a a a @.a X.a a 8 w w q.3.u v &.^ ! ^ z / R ^ J /.r.,.~ J D 8 q i W ",
"g.0.G.g..X5XF.q.z X.i X.a a ! O.a Q.3XI.d.;.3.u.m./ 3.6.b.b./.b.<.c.!.2X=X2Xx.3.",
"F F q R ` <.| ) E F P e.) F Z 7 q R ~ F 7 P ) | qX| Y I I E ` Q { { { ..e.qXZ.Z.",
"7 q 7 Q P 4 q 5 F $ 7 c._ F 7 5 q q R W F P { ..>X( ) { A E A P P P Q u.u.uXi. .",
"l n 3 n M n v r 3 2 > 9.7.> 2 2 e < j d < x n ] *X&.z ] n v n l n l n y.>.6Xt.*.",
"V p.>.:.b :.%.>.t.s.j.,X3XP.Y.J.D.h.'.t.*.S.Q.-X9X}.K.L.J.}.3X3XQ.T.P.9.h.rX-XoX",
"g f U  .y.;X1.W z g g R R g g z x ]  Xx 6 7 U Y ......{  .z.E.$X<...z.T ) ` ) T ",
"W f U g U ;X] g $ $ U U W W 7 6 ] z $X$ W { { % % I Y I Y | v.E.` H T T ) A ) | ",
"=.n %.n ^ 9X=.O.u 2 0 , o 1 , f , m 6Xz q 4 q 4 5 9 6 P W / d.W.#.D ; 9 i F 9 ~ ",
"j.s.k.n.B.tXP.s.5.s.F.Q.I.d.&.^ >.U.pX|.b.O.<.r.@XM.w.x.v.M.W.=Xb.M.x.n.b.|.u./ ",
"/ 1./ R O q q W P R P r.6.P ~ / O.R 6.9 F ) ( L _.w.G ( E E [ <.[ [ [ ] 1.4XL.k.",
",.,.0 R R q R 6 R ~ R c.x.4 9 g z z ,.[ F ~ G G _.` D I D E Q g / g ] x 1.-XL.L.",
"5.n x x 0 0 x g ! ^ [ &.g.o z 6 m d n d f f z q T./ 6 # 4 g 6 6 z , 0 W d wX].m ",
"] >.J.S.>.>.n n n f n d.W.&.=.n ] V S.t.%.n &.&.!.K.!.%X%X/.K.[.x.n.R.OX].iXOX].",
"&.n n x =. Xd.d.=.z 0 q ^ ^ ! x f ] [.] W R ~ / _ E _ _ _ F _ `./ &.[ %.=.B.t.B.",
"l n n 0 2 n.o , , 0 0 1 , v q 0 6 g  Xg q 0 F F J E ~ D E Z ~ #X<.<.1.u.v.B.1.y.",
"=.&.x 4 z Q.^ &.0 q i R ; q 4 n f m OXf f f x g 0 F P $ g P Q Z.Q 6 7 6 f i.i.t.",
"&.W ^ 6.K.0Xm.d.!.d.[ m.6.&.O.m.].].wX'.].L.Z.V.$XE.v. .l.C.Z.>XE.~.%X+XV.;Xi.] ",
"m.6.6.[ z R R ,.R g 0 c.m./ ~ <.] g 2.W { P P A E.e.` ) ) ) T | ' _ l.{ [ 8Xu.v.",
",.P W O.R q q 6 i / R <.<.R } W [ P } } ..R I I ).` T T T S S T T ) ) U  .eXU z."
};
