/* XPM */
static char *_a159bba71e540eaea21f9eb561247b3yMjSBfYukOhvCcdL[] = {
/* columns rows colors chars-per-pixel */
"40 40 214 2 ",
"   c #001D36",
".  c #052A3F",
"X  c #01243A",
"o  c #0A303D",
"O  c #17353E",
"+  c #042A46",
"@  c #0D3446",
"#  c #0B334B",
"$  c #0F384C",
"%  c #143544",
"&  c #1B3645",
"*  c #163845",
"=  c #1B3A45",
"-  c #143649",
";  c #1B374A",
":  c #153A4C",
">  c #1B3C4C",
",  c #0E3A52",
"<  c #143D54",
"1  c #1A3E52",
"2  c #153750",
"3  c #223E4C",
"4  c #203F51",
"5  c #1B414E",
"6  c #09485A",
"7  c #164155",
"8  c #1D4255",
"9  c #17455C",
"0  c #1C455A",
"q  c #1D495C",
"w  c #1E505B",
"e  c #21434C",
"r  c #224455",
"t  c #234955",
"y  c #224559",
"u  c #244A5D",
"i  c #294D5E",
"p  c #2B4252",
"a  c #265159",
"s  c #174963",
"d  c #1D4B63",
"f  c #1E4C69",
"g  c #154B6A",
"h  c #0D5564",
"j  c #12516D",
"k  c #1D506A",
"l  c #1E4974",
"z  c #1F5671",
"x  c #1B5974",
"c  c #234D62",
"v  c #294E62",
"b  c #244D6A",
"n  c #294E6B",
"m  c #264764",
"M  c #245265",
"N  c #2A5365",
"B  c #24536B",
"V  c #2A556B",
"C  c #25586E",
"Z  c #2B5A6C",
"A  c #315C6F",
"S  c #30566B",
"D  c #224F70",
"F  c #245573",
"G  c #2A5671",
"H  c #255B74",
"J  c #2B5C73",
"K  c #2E577B",
"L  c #245F7A",
"P  c #2C5D7A",
"I  c #325D74",
"U  c #315D7A",
"Y  c #385D78",
"T  c #0B627E",
"R  c #1F667C",
"E  c #2F616D",
"W  c #266477",
"Q  c #2D6177",
"!  c #25627D",
"~  c #2B637C",
"^  c #2C697D",
"/  c #316176",
"(  c #3B6276",
")  c #33647B",
"_  c #336B7E",
"`  c #3A687E",
"'  c #3B657B",
"]  c #41687D",
"[  c #1F5E87",
"{  c #235D82",
"}  c #146582",
"|  c #1B708F",
" . c #256683",
".. c #2C6582",
"X. c #266B84",
"o. c #2D6A84",
"O. c #2B658C",
"+. c #2E6B8B",
"@. c #236B8B",
"#. c #336583",
"$. c #386582",
"%. c #336B84",
"&. c #396C85",
"*. c #33678C",
"=. c #336D8A",
"-. c #3A6C8B",
";. c #3A6788",
":. c #2C7285",
">. c #2E738D",
",. c #2F788B",
"<. c #337287",
"1. c #3B7187",
"2. c #34728C",
"3. c #3B728E",
"4. c #3F7B8F",
"5. c #2C6D94",
"6. c #336E92",
"7. c #346A9B",
"8. c #2C7691",
"9. c #2D7C95",
"0. c #267997",
"q. c #357493",
"w. c #3B7592",
"e. c #347B94",
"r. c #3C7A95",
"t. c #367498",
"y. c #357C9C",
"u. c #3C7B9B",
"i. c #3B769E",
"p. c #0B5EA4",
"a. c #3D7BA4",
"s. c #3A7AA3",
"d. c #416E86",
"f. c #486E87",
"g. c #44728A",
"h. c #4A768B",
"j. c #407F8E",
"k. c #53778D",
"l. c #437591",
"z. c #427C9A",
"x. c #4A7C9B",
"c. c #497794",
"v. c #517B95",
"b. c #417DA2",
"n. c #3B819D",
"m. c #358199",
"M. c #3E85A2",
"N. c #3E83AC",
"B. c #42819E",
"V. c #4C819D",
"C. c #468096",
"Z. c #55829B",
"A. c #5C869C",
"S. c #4284A3",
"D. c #438CA5",
"F. c #4986A5",
"G. c #5287A5",
"H. c #5C89A3",
"J. c #5789A7",
"K. c #5B93AE",
"L. c #4986B5",
"P. c #5280BB",
"I. c #5491B5",
"U. c #5996B6",
"Y. c #4892B9",
"T. c #658DAC",
"R. c #648BA4",
"E. c #6491AA",
"W. c #6B90AB",
"Q. c #6393B3",
"!. c #6897B3",
"~. c #6999BB",
"^. c #779BB5",
"/. c #6FA2BE",
"(. c #73A5BE",
"). c #5D8AC1",
"_. c #5698C7",
"`. c #4A96CD",
"'. c #6E9EC4",
"]. c #679FD0",
"[. c #68A2CA",
"{. c #7BA6C2",
"}. c #7BAAC3",
"|. c #75A8CC",
" X c #77A5C7",
".X c #66A6D2",
"XX c #79ADD7",
"oX c #56A5E0",
"OX c #79B6E5",
"+X c #85A9C7",
"@X c #84B6CF",
"#X c #86BDDD",
"$X c #89B7D7",
"%X c #92B6D1",
"&X c #91B9DD",
"*X c #8CBCE3",
"=X c #8CC2DA",
"-X c #9CC6E4",
";X c #99C4E8",
":X c #94CBF9",
">X c #9DD9FB",
",X c #89C6F2",
"<X c #A4C7E8",
"1X c #B4CEE9",
"2X c #AED4EB",
"3X c #A9DAFE",
"4X c #B9DAFA",
"5X c #A7C8F3",
"6X c #ACE9FE",
"7X c #BAE4FF",
"8X c #C8D9F5",
"9X c #C7FAFF",
"0X c #DBF3FF",
"qX c #D4F7FF",
/* pixels */
"; > > ; > > * u r ; c 1 ; = ; 8 = > 8 r 1 c 1 8 y l G 8 l 8 e i 8 - 8 > y 8 1 u ",
"> > r > 8 8 > y u : Y i > > ; u * * > * - < @ 2 [ b.P.D 8 3 = y u 8 v 0 N y y v ",
"u y i u u u u v c < g.c 1 > r u n G U $.c.Q.~.@X4X0X5X7.B r < F u 1 u 8 u 8 1 y ",
"y y u u u u v c u < !.d 8 y u 8 8 0 0 1 < d < 9 p.:X3X[ c p y B i < u 8 i 1 > 8 ",
": > 1 1 1 8 0 0 q , {.B 0 N 8 c u u i i u Z 9 9 < +X;X6 M v v t N 0 c 8 c 8 1 r ",
"0 c u u c v N v M q g.B q M u M i i c q M J c B j ).$X6 E 8 d ! V 0 i 8 i 1 > r ",
"> y 8 8 y 8 u y i Z 9 c c c V M a N N M M / M M d x. Xg Q i a V V u N 8 i 1 > 1 ",
"> v r 1 y 1 u u t M B M V A d H G F H B H *...=.K l.Q.b Q B n P V q N y i 1 > > ",
"* Y - y y r y c c B d B k g j j H l F L @.`.oX`.s.7.G.B ) N B Q J c Z q c c u y ",
"1 k.0 N y N ' Z W 3.C.G./.$X-X$XI.K.{.&X<XqX0X8XI.b.G.H &.C B ~ J d N 8 c q 1 % ",
"X W.s 1 u y q c N B G k o.L  .x 3.!  .O.a.OX:X:XL.t.z.H &.H H #.~ c Z q V V r e ",
"  %Xg.# 0 c 9 B G c H ~ 3.L ! ..:.!  .^ X.Y._._.b.t.z...=.~ z o.Q M Z 8 8 A ; > ",
"2 +X{.v.( V / Q ) %.<.=.c.-.#.) u._ _ _ W C.4.S.+.+.S.=.w.3.%.w.~ J Z c 1 f.% > ",
"% X # 7 8 8 c M V J P ! e.r.o.X.z.~ #.O.O.n.9.M.q.r.B.=.=.4.L %.H B u y < A.- = ",
"; - < 8 y u M C Z C W ~ r.r.! ~ V.+.*.;.%.z.=.r.X.=.w...o.w.H %.Z M u u < R.@ % ",
"O = 5 8 0 i a B B J ~ ! r.w...%.D.o._ #._ m.2.F.~ <.w.o...3.H 1.Z M M i 7 A.@ 8 ",
"* > > 1 N B J ) ..-.q.=.u.u...~ U.=.%.o.+.M.M.K.e.n.D.m.e.D.>.q.B Z w M d {.. = ",
"% * 5 1 N B B F Q ~ !  .<.2. .R XX..=.<.^ +.q._.=.+.q...! 1.~ ` F B M s K ;X+ 8 ",
"e r i v I G P P ) %.<.+.i.L.U..X6X2.O.6.=.%.w.|...=.F.z.u.u.q.y.;.) V J K T.+ 8 ",
"% ; r c I P ) 3.m.S.U.~.}.%X<X1X>Xu.+...%.#.J.*X} @.u.o.~ P #.%.B M q c < < 2 > ",
"= = 8 t N d k Q =.%.w.+.8.9.0.| 6.O.2.<.=...'.3X} } 8.X.o...~ =.Z M Z u 0 2 @ @ ",
"O * 5 i Z d M _ %.Q &.~ ^ %.2.o...>.o...5.7.#X9X;X|.!.J.x.w.6.u.$.) J G Y f.k.^.",
"= ; r i N 9 d ~ P H -.%.#.+.i.5.6.+.X.o.:.+.I..Xs.8. ...o.^ ~ %.k Z b B m 1 1 Y ",
"% % 1 8 B 9 k =.N.5.t...~ o.4.%.%.o.r.M.e.8.s.0.t.u.e.,.:.2.=.6.Z c c 8 8 8 > : ",
"v K -.x.Q.~.|.,X4X7X*X=...+.e.:.o.;.D..X2X;X*X|.[.E.J.}.$X(.E.Z.x.=./ Z N c 8 y ",
"% : 7 9 B 9 d ;.2.q.u. .*.{ 3.3.+.#.M.,XqX#X[.I.z.r.r.J.U.V.=.! G k B d 0 8 - > ",
"& > 8 q N q c ) ~ ..n.r.q.o.r.o.X.o.D..X=Xu.w.t.S.t.u.t.w.q.%.2.) ) I B v i r y ",
"& ; 8 u N c c P G ) x.w.r.e.D.9.S...,.+.K.r.*. . .q.r.r.r.q.1.*.) I J V v i r > ",
"r y c B I Z J ..B B =...-...2.o.u.! r.%.J.2...o.o.q.%.! ~ H ~ H H B c 0 8 5 > * ",
"& * 8 q N u V H B J ~ W w.#.;.;.3.%.3./ L.>.;.L ~ 1.~ ~ Q J ) B b c c q r 5 > > ",
"& = 0 q N c B J n V ~ H %...%.W 3.o.%.Z M.e.g.3.2.4.%.~ H C C M c c 0 y y 8 ; % ",
"; > 8 d v m V J B B ~ H #.J ^ W =.z <.Z s.e.K ^ X...#.~ &.&.g.c.E.h.M 8 8 > e 3 ",
"r u c y N b G G d B P F %.k ..H %.k -.H H 1.J Q J Q J Q Q ` &.g.R.A.b y > 8 > 5 ",
"; - 1 8 u c ` M q u B B @X#.C J P s G s d J B k B B B B J H J J N J 9 N M u t 8 ",
"y y y v N A h.Z i y c 7 }.Z V N c.}.}.H.Z.h.) ) J J J B / V B M 0 N 0 8 8 : 1 1 ",
"> u y 8 u &.Z.2 8 y u q v.q Z 0 V E.H.) d.) B b c d u c V V V I M E M M M u i 8 ",
"1 u v 0 1 R.{.+ 8 y < s d.q N d 0 0 u 0 v B c 0 u u q u 8 0 0 c 5 i 8 u u i r r ",
"1 y 8 1 m W.-XR.] ( c q ' 7 0 8 8 : i 0 i c 1 8 < 8 1 r 1 1 1 i 9 u 7 8 > 1 7 8 ",
"- t y u d 1 < # > - 8 : N : i 5 > 8 t * y v y i i N i v i r r v 8 r 1 1 r r > 3 ",
"1 r 5 8 r : : 8 3 ; 1 * i * > = % * e ; ; % 1 > : * ; ; 4 - > 8 u r 1 - u r y y "
};
