/* XPM */
static char *d62e56dcebfa4af3a7aeba4fc4a9567bf5Oi0Waqs444QENx[] = {
/* columns rows colors chars-per-pixel */
"40 40 62 1 ",
"  c #0E6D69",
". c #146D6C",
"X c #0C716B",
"o c #12716F",
"O c #176F70",
"+ c #0C7571",
"@ c #0D7C73",
"# c #157573",
"$ c #1A7574",
"% c #147B76",
"& c #1A7A77",
"* c #1E767A",
"= c #167D79",
"- c #1C7D7B",
"; c #207677",
": c #227D7D",
"> c #0D847A",
", c #168777",
"< c #1B8476",
"1 c #15847C",
"2 c #1B837E",
"3 c #13887F",
"4 c #1A8A7C",
"5 c #208075",
"6 c #21817E",
"7 c #1F7E80",
"8 c #207E80",
"9 c #1C8681",
"0 c #168981",
"q c #1C8982",
"w c #238481",
"e c #2B8585",
"r c #238A85",
"t c #2A8B87",
"y c #2F8788",
"u c #268D89",
"i c #2C8D8A",
"p c #39878B",
"a c #328E8D",
"s c #27928B",
"d c #2B918D",
"f c #33928F",
"g c #358E92",
"h c #398F90",
"j c #2D9591",
"k c #2F9993",
"l c #349392",
"z c #3A9494",
"x c #359994",
"c c #3A9A96",
"v c #359C99",
"b c #3C9C99",
"n c #30A29A",
"m c #3DA19B",
"M c #3FA3A1",
"N c #429B9B",
"B c #44A19E",
"V c #4D9CA0",
"C c #44A2A1",
"Z c #4AA3A2",
"A c #48A8A6",
"S c #4AAAA8",
/* pixels */
"9ww9&=r%qq0q=s0q09=9-9190ql:8992311qqq=s",
"wwew8wu----==u=7q==e-w999wg:*22-292ww9-d",
"$#$$$$8#=####w=-%% -#&%%#&eO$#$&$*$&$*$w",
"clzzczAllllljbllvvjVcvvvkvVlldjlzVNczcxb",
"w262w9j&-912=q2209=u2w200qw21102*i66&91=",
"2926r=j=19221911907i7221>19-1001*dww9903",
"69w:w-j=29-99=2299-t62-20q999111*y8q=9>3",
"::86e*l*7-9w9-:9=97i:w2919:92122:a:w-100",
"w8:y8wc$----w=r9wwwww88992--9-97$l72r-=1",
"wwweewz-99979wr7wr9wwwwq99ew9229&l8wr99q",
"itaiiilriiiuuxjuiiidiaisiivtuururluuiuuj",
"w262999-292-=jq12q9-9--1q=l=-21129-9992u",
"929999-qq=22=s9791229-110-l$29-19>91-q<d",
"q9q999199999=d99991q1799q2l=992201919r-d",
"1q1q22112=22=uq92991-9910-f&-912010=19=i",
"qq1qq92q99211iu-991999-199g:--29>0919q<i",
"zalzgicyaglgaNcailaNgghlacByllaztNiiilfk",
"9&-w:-i&--&-&:8#--*e::--#:w#---:-l8---%2",
"9=2129d&2-==2=2=12&u-912=9-2-2226lw--222",
"031129u%1192qq9910-u2q9qqu=qqq=q*i-2=224",
"131119d&qq12r29q092u991qqq=r192q*f2-2221",
"1109-wl*w299997129-t9w2999=r29-2-l2--2<2",
"1=--*;y;w-::-ww----y:::w86w6:--7&a:&%2-2",
"jjllpNVplzlzaczaglgNzzlllgNallzlaBfdfffd",
"-9w-28-6>1=--i9-----27-92wl*-:22=11==>1r",
"999-9--20019&j-1qq02q9qq12d=292qq99q91qs",
"99-22122001q=s110000000001k%2911q291919s",
"92202>110q0q=d993>3>00>001k%2113222=2-2r",
"q99qq109>1122i92=11190==21j&-9=q9w22625u",
"%===++%+1=2*wyww==%=9-=%9wi;-----2&+22<6",
"vvkvxvMjddlaacllllgllxlllzNhzaijlbktxfxc",
"77-77wi=999w-y;2:88wew:--w:::88w5i6&6556",
"099788g899-99901q=qyw*9992w2<w22&x5-622<",
"70079:g;91111=0>099uw-2q1q22222,&x<&6<4,",
"7070<:N;10999990q=qiw-10102222,,<f2224,<",
"7077:;N;=9=9=9=19=2yw*291q26522,&f6-<2<<",
"%7#&&$6O#oo.O*#X-#$8;.#-X## . X $6;$o#@<",
"ljfxfxBNmczNzZbbcllNNzcxmmScccmvNNNNfxkm",
":5404544,%-6-t2292:w::w100j=<=21566656,q",
":<,,,,4534422s4q9119220>0>n@11,,5%,2,4,4"
};
