/* XPM */
static char *_b9c8412eab7474f9035de15909363a9UGcoTTJxE3MrRIAG[] = {
/* columns rows colors chars-per-pixel */
"40 40 172 2 ",
"   c #4F484B",
".  c #50494C",
"X  c #524A4D",
"o  c #534C4C",
"O  c #514C4E",
"+  c #534C4E",
"@  c #524E4F",
"#  c #544D4D",
"$  c #544D4F",
"%  c #554E4E",
"&  c #564F4F",
"*  c #57514F",
"=  c #554E50",
"-  c #544F50",
";  c #564F52",
":  c #575151",
">  c #555052",
",  c #575053",
"<  c #565153",
"1  c #555354",
"2  c #575254",
"3  c #595250",
"4  c #5A5351",
"5  c #595252",
"6  c #5A5353",
"7  c #5C5653",
"8  c #595154",
"9  c #585355",
"0  c #5A5355",
"q  c #5B5454",
"w  c #585556",
"e  c #595556",
"r  c #5B5456",
"t  c #595757",
"y  c #5B5657",
"u  c #5C5555",
"i  c #5D5754",
"p  c #5C5557",
"a  c #5D5656",
"s  c #5E5856",
"d  c #5D5658",
"f  c #5C5758",
"g  c #5E575A",
"h  c #5A5858",
"j  c #5B595A",
"k  c #5E5858",
"l  c #5D585A",
"z  c #5E595B",
"x  c #5C5A5B",
"c  c #5F5A5C",
"v  c #5E5B5C",
"b  c #5F5C5D",
"n  c #605957",
"m  c #605959",
"M  c #615A58",
"N  c #625B59",
"B  c #60585B",
"V  c #615A5A",
"C  c #625B5B",
"Z  c #635D5A",
"A  c #645E5B",
"S  c #615A5C",
"D  c #625B5D",
"F  c #605C5D",
"G  c #635C5C",
"H  c #605D5E",
"J  c #635C5E",
"K  c #625D5E",
"L  c #615F5F",
"P  c #635E5F",
"I  c #645D5D",
"U  c #645D5F",
"Y  c #655F5F",
"T  c #68615F",
"R  c #655E61",
"E  c #645F61",
"W  c #675F62",
"Q  c #626061",
"!  c #636162",
"~  c #676060",
"^  c #656062",
"/  c #666163",
"(  c #656263",
")  c #676264",
"_  c #666364",
"`  c #686161",
"'  c #696260",
"]  c #686163",
"[  c #696262",
"{  c #6A6363",
"}  c #6A6461",
"|  c #6B6562",
" . c #696264",
".. c #6A6365",
"X. c #686465",
"o. c #6B6464",
"O. c #6B6466",
"+. c #6A6566",
"@. c #6C6664",
"#. c #6E6765",
"$. c #6C6666",
"%. c #6E6767",
"&. c #6B6668",
"*. c #6C6568",
"=. c #6C6769",
"-. c #6E6669",
";. c #6F6868",
":. c #6D686A",
">. c #6C696A",
",. c #6F686A",
"<. c #6E696B",
"1. c #6D6A6B",
"2. c #6E6B6C",
"3. c #6F6B6C",
"4. c #6F6D6D",
"5. c #706967",
"6. c #716B68",
"7. c #70696B",
"8. c #716A6A",
"9. c #726B6B",
"0. c #716A6C",
"q. c #726B6D",
"w. c #716C6D",
"e. c #736C6F",
"r. c #726D6F",
"t. c #706E6F",
"y. c #756E6C",
"u. c #766F6D",
"i. c #77706E",
"p. c #78726F",
"a. c #716F70",
"s. c #736E70",
"d. c #756D70",
"f. c #766E71",
"g. c #737071",
"h. c #757072",
"j. c #747172",
"k. c #777072",
"l. c #757273",
"z. c #767474",
"x. c #787171",
"c. c #787173",
"v. c #7C7573",
"b. c #797274",
"n. c #787374",
"m. c #7A7376",
"M. c #7A7474",
"N. c #797476",
"B. c #787677",
"V. c #7E7775",
"C. c #7C7477",
"Z. c #7D7676",
"A. c #7A7778",
"S. c #7D7578",
"D. c #7E7779",
"F. c #7D797A",
"G. c #7F787A",
"H. c #807A77",
"J. c #80797B",
"K. c #837C7A",
"L. c #817A7D",
"P. c #837B7E",
"I. c #827D7F",
"U. c #847D7D",
"Y. c #847C7F",
"T. c #837E80",
"R. c #857E80",
"E. c #867F81",
"W. c #858384",
"Q. c #8B8482",
"!. c #888184",
"~. c #8C8587",
/* pixels */
"p R 8 S z d d S d = d ....8 8 d + = r d d d d d z 8 B p c.8 , d d g S B B B S S ",
"B ] p U S S S S S 8 d -.-.d 8 S d d S R S S S S U d U B b.z d S B z S S S S R S ",
"8 S = d r 8 8 8 , + = R R , + 8 = , 8 d G S B B S p U B f.S B p 8 d d d d d d g ",
"-.f...q.7.<.-.q.-...-.b.k.*./ -.R R O.-.O.O.O.O.O...7...S.-.-.U R R R R R R W W ",
"-.-...~.<.,.,.,.-.<.q.<.7.7.q.q.q.q.f.e.q.] ] O.R ..R ..f.-...-.R O.G ..k.c.-.q.",
"....W !.,.,.7.O.*.*.O.*.-.-.<.7.-.<.7.q...S p B d d d d ] U S B = 8 + ; <.q.....",
"W R S R.,.<.,.O...-.O.-.O.-.-.-.-.-.7.7.7.W U ] R R R R ] O.] S 8 d > r q.c.-.-.",
"U B d J.,.-.-.-.-.-.-.-.-.-.-.7.7.<.7.7.O.J B J B B S S d W J , 8 d = r -.-.R / ",
"B z R ] ..W / ....q.R ,.-.O.W S ....O.O.-.U d R S B R S B d p 8 S S p 8 -...-...",
"c.e.C.C.b.f.f.f.d.C.q.b.S.b.f.q.f.f.c.f.S.b.f.f.e.7.f.q.b.f.<.q.s.q.q.<.S.S.S.S.",
"r , d U W R R R B W p R -.] R S r r d d G R S r 8 = r 8 -.d = p = 8 8 p S S S G ",
"d p J U S S S S , B $ r ] J B r B B S S S / R r , $ 8 = f.B = d = , p d S g S S ",
"8 8 z B B g d g $ d = R ] U B d $ d S d R R S d r = p 8 f.p = d = = 8 d R S d ; ",
"d d S S d p r r . r $ B U S d 8 B S z 8 d d 8 = 8 > p , ..r = d 8 ; > = d p d d ",
"7.-.s.f.k.k.k.k.O.k.q.C.J.S.b.f.c.q.7.q.f.q.7.-.f.<.f.q.S.q.q.f.f.d.q.q.q.q.d.q.",
"S d R R J S S S = S 8 R ..R S d B 8 B ..f.q.7.O.<.O.q.-.-.*.-.-.....-.d.-...R g ",
"S B B f.p p p p d d g g B B S S r 8 p R f.f.q.q.-.-.7.<.-.-.-.-.,...q.O.b.S d d ",
"S B R c.p p p p d d g g B B S S p p B ..f.q.q.<.,.,.7.-.-.-.-.-.,...q.-.b.S S S ",
"S S D c.p p p p d d g g B B S S S B G -.f.q.q.q.,.7.-.-.-.-.-.-.,...q.O.b.R S R ",
"S S D f.p p p p d d g g B B S S G S R <.q.q.7.q.q.-.-.-.-.-.-.-.<...q.-.f.R W R ",
"R.R.R.J.J.J.T.T.R.T.R.R.J.d.7.f.s.f.f.c.S.S.S.S.b.d.b.f.P.O.-.q.c.c.c.c.c.k.f.q.",
"7.q.7.7.7.O.7.O.7.q.q.7...g 8 B d B S S S S S S S d J d 7.8 , 8 > 8 8 8 S z 8 8 ",
"k.k.c.f.d.d.d.d.d.k.c.c.O.B p S d S S S R S S S S d R d b.z r 8 8 r r 8 S S d 8 ",
"d.d.d.d.q.7.q.q.d.d.k.d.W p = r 8 p 8 d R S S J g 8 S 8 S.d 8 $ 8 r p p S S d d ",
"O.c.O.7.7.7.7.7.7.-.-.,...W S B S 8 ; p g d d B 8 = S d q.= = = 8 8 8 8 B d 8 8 ",
"7.d.O.c.C.C.C.m.N.b.b.b.S.C.k.q.b.q.q.f.b.f.d.s.f.f.m.b.R.f.s.f.........b.k.f.q.",
"8 , = 7.W W W W R R U ] ....J d W R R 7.,./ G S d S g R ..R d S B B B z q.q.-...",
"p = = c.J S R B Z B B B p , $ . r 8 d ..W g , + = d ; S r W p S B B B z <.O...] ",
"* # 7 U.R U T U G G G G #.| U Z R R R -.-.R d 8 = G r O.g *.b / R b G R s.4.=.*.",
"$ # 8 p.B C B n B n s B B p 8 $ S d d R R B 8 8   r , b z R 9 z b b b b <.=.O./ ",
"G | ] C.5.5.5.#.5.O.O.O.#.| T G -.O.-.f.q.7.-.-.=.*.=.<.N.=.X.*.1.=.=.1.z.k.s.<.",
"G | T 7.] ] ] ] ] T T T 7.<.] R ..R ..q.<.O.-.<.w./ <.X.F.^ ! / G b R G O./ ! R ",
"8 p p 7 B Z B B * 7 4 } O.Z G G R S R J U S G R ! S b z T., = p , 1 , 1 z z z z ",
"s G J Z B Z G Z 4 p p O.#.G G G ..W ^ ....R ^ / / ! ! R T.h , b h p p r z z z z ",
"$ 8 q p * > * 8 $ 8 * T O.Z R G d d d d p r d d h r r 9 4.> > , =     @ z z z z ",
"* 4 B T p 7 r 7 8 s 7 O.O.Z U U S S S S S d z z G d z h 1.9 9 w > > > 1 z z z b ",
"p.p.y.Q.i.y.i.y.p.p.6.p.N.9.c.M.f.q.f.C.I.S.k.w.z.S.4.g.A.1.j.j.t.=.g.4.W.t.j.j.",
"| T T V.s s s s M M 4 T G 7 B Z g d g ..O.G v r h b t b L t L j t 1 x w t.h j j ",
"5.#.| U.i i i i n n * G G 4 B Z G g S ..O.U z t p z h ! b j ! h x 1 x w z.x h w ",
"#.| | H.7 7 7 7 s s * Z B 4 s B S S G O.O.G z r , j h / j b X.w x 1 x t B.L w 1 "
};
