/* XPM */
static char *_c900dabb26e404defedfcab88b34eefp1ibfSbnIJgz1s0R[] = {
/* columns rows colors chars-per-pixel */
"40 40 168 2 ",
"   c #002A66",
".  c #00366A",
"X  c #003C6B",
"o  c #00416E",
"O  c #024471",
"+  c #0B4672",
"@  c #004C79",
"#  c #114773",
"$  c #154A75",
"%  c #1E4C75",
"&  c #144C78",
"*  c #1F4E78",
"=  c #1F507C",
"-  c #204F7B",
";  c #23537E",
":  c #195384",
">  c #125A90",
",  c #215482",
"<  c #2B5781",
"1  c #245B8B",
"2  c #335C83",
"3  c #255D90",
"4  c #10609C",
"5  c #356084",
"6  c #376088",
"7  c #3A408B",
"8  c #266296",
"9  c #28669C",
"0  c #29689F",
"q  c #0063AD",
"w  c #016AAE",
"e  c #0E6CAF",
"r  c #156DAE",
"t  c #0870AF",
"y  c #016BB1",
"u  c #096CB0",
"i  c #136DB1",
"p  c #1A6EB2",
"a  c #1570B2",
"s  c #1D71B2",
"d  c #1978BB",
"f  c #2A6AA3",
"g  c #2C6EA9",
"h  c #2D71AD",
"j  c #2471B3",
"k  c #2D75B5",
"l  c #2F77B8",
"z  c #2E78B8",
"x  c #3077B5",
"c  c #3479B6",
"v  c #387BB7",
"b  c #3F7FB9",
"n  c #414087",
"m  c #4B6F8F",
"M  c #486F96",
"N  c #456D93",
"B  c #4C7399",
"V  c #537090",
"C  c #507598",
"Z  c #52789E",
"A  c #617995",
"S  c #567EA2",
"D  c #6A839C",
"F  c #4482BB",
"G  c #4A85BC",
"H  c #558BBD",
"J  c #5F90BE",
"K  c #6283A4",
"L  c #6087AB",
"P  c #6388AE",
"I  c #708EAC",
"U  c #678CB1",
"Y  c #6B90B5",
"T  c #6090BF",
"R  c #6F96BA",
"E  c #478DCB",
"W  c #568EC3",
"Q  c #5A8EC1",
"!  c #5D92C4",
"~  c #4693D2",
"^  c #4B95D2",
"/  c #5197D4",
"(  c #5599D4",
")  c #5A9BD5",
"_  c #6293C4",
"`  c #6B99C7",
"'  c #6D9DCD",
"]  c #769DC4",
"[  c #799EC3",
"{  c #749FCB",
"}  c #7DA3C7",
"|  c #7DA5CC",
" . c #75A2CC",
".. c #6AA3D5",
"X. c #6EA6D9",
"o. c #75A4D2",
"O. c #77AAD7",
"+. c #7FACD7",
"@. c #7FAED9",
"#. c #899EB3",
"$. c #8CA1B4",
"%. c #82A6CA",
"&. c #84ABCF",
"*. c #84ACD2",
"=. c #81AED8",
"-. c #8CB2D6",
";. c #84B2DC",
":. c #8CB5DC",
">. c #9EB8D3",
",. c #94BADE",
"<. c #99BCDC",
"1. c #A6B7CA",
"2. c #A2BAD0",
"3. c #8FBAE2",
"4. c #94BCE2",
"5. c #9BBFE2",
"6. c #9EC0DF",
"7. c #A4C2DC",
"8. c #BFCDDC",
"9. c #B2C3D3",
"0. c #97C0E5",
"q. c #9CC2E7",
"w. c #9EC4E8",
"e. c #A2C5E6",
"r. c #A4C8E7",
"t. c #ACCBE7",
"y. c #A1C6EA",
"u. c #A3C8EB",
"i. c #ABCCE9",
"p. c #B1CCE5",
"a. c #B1CFEB",
"s. c #B5D2EC",
"d. c #BCD6EE",
"f. c #BED8EE",
"g. c #BED9F1",
"h. c #C3DAEF",
"j. c #CBDBEA",
"k. c #C2DBF1",
"l. c #CADEF1",
"z. c #CEE1F2",
"x. c #D5E6F3",
"c. c #D5E5F4",
"v. c #D4E4F3",
"b. c #D9E7F5",
"n. c #D9E7F6",
"m. c #D9E7F5",
"M. c #DBE9F6",
"N. c #DAE9F5",
"B. c #DDEAF6",
"V. c #DEEAF6",
"C. c #DFEAF6",
"Z. c #DFEBF6",
"A. c #DFEBF7",
"S. c #DDEAF6",
"D. c #DEEAF6",
"F. c #DCEBF8",
"G. c #E0EBF6",
"H. c #E0EBF7",
"J. c #E1EBF7",
"K. c #E0ECF7",
"L. c #E0ECF6",
"P. c #E2EDF7",
"I. c #E0EBF7",
"U. c #E3EEF8",
"Y. c #E1EDF9",
"T. c #E2EEF9",
"R. c #E4F0FB",
"E. c #E9F3FD",
/* pixels */
"v.../ ) X.y.w.q.d.L.G.V.l.d.d.d.y.q.w.:.d j l 4 #.Y.A.M.A.M.V.k.f.f.d.w.5.w.-.O ",
"L.Z.-.^ ( ) 5.w.0.f.A.A.V.v.d.f.d.i.5.w.0.S j j Q n.U.A.A.A.V.G.l.d.d.d.u.w.w.,.",
"V.V.U.e.~ ( ( 3.f.f.f.N.V.A.x.d.f.f.a.q.y.y.Q i j u j.A.V.V.V.V.G.v.d.f.d.i.w.w.",
"V.V.V.U.d.^ ( / 4.g.d.d.x.G.J.N.f.d.f.s.5.w.u.o.y ! d.v.G.V.V.V.M.J.m.d.d.k.a.q.",
"V.V.V.V.L.v.) / / ;.k.g.d.z.Z.V.A.k.d.d.d.w.w.y.:.g.f.d.l.G.G.G.V.V.G.B.h.d.f.s.",
"J.G.V.V.G.G.N.O./ E G d.g.d.l.V.A.J.l.d.d.d.u.5.w.w.d.f.d.k.G.G.V.V.M.G.A.l.d.d.",
"@.V.G.G.V.V.G.L.-.q j k t.g.d.h.B.A.J.v.d.d.h.i.5.w.5.s.f.d.h.m.J.V.M.G.B.A.v.d.",
"/ ..c.L.V.V.V.G.U.7.y j u <.k.d.f.n.J.A.m.d.d.h.i.q.w.w.i.h.d.d.x.G.G.M.B.A.J.v.",
"( ( ( h.U.V.V.V.V.E.2.e k q &.k.d.d.v.J.V.N.h.d.g.s.w.5.q.i.g.d.s.v.A.A.A.A.V.G.",
"4.^ ( ~ p.R.V.V.R.8.. = k x u _ f.h.d.l.J.V.V.l.d.k.f.u.w.q.y.d.f.d.l.A.V.A.V.V.",
"k.i.) ) d %.R.R.9.  * % % f l s b a.h.d.k.G.G.U.l.f.k.I } y.w.w.s.h.s.h.V.A.V.V.",
"d.g.d.W i w _ 1.  * * * - % 9 l k a e.k.d.h.N.G.J.n.K . X Y y.w.w.s.k.f.d.m.V.V.",
"z.d.f.f.` y j w , % * * * * % 1 z k q :.k.f.d.x.G.U.j.2 O X Z y.w.5.i.h.f.d.x.J.",
"V.x.d.f.k.*.y x k 1 % % * * % - , k k w  .g.g.d.v.G.J.N.K + + 2 4.w.w.u.f.f.d.l.",
"Z.V.N.f.d.k.q.w k z 8 % * - * * % - h z i Q d.k.d.l.J.A.] > % $ & -.y.w.y.s.g.f.",
"z.U.V.V.h.d.h.t.c j z f % % * * - - % f k j x i.f.d.l._ y l 0 % % X ] y.w.w.s.h.",
"d.l.J.V.V.l.d.k.d.H i l g - % - % - % % 8 x k w 7.k.f.s.F p z g % % . L y.w.5.a.",
"d.d.k.A.G.V.v.d.f.k. .y x k , - - % - - % 1 k k w -.k.f.g.W p k k ; - o M w.y.w.",
"a.h.d.d.N.V.J.x.d.f.k.-.w k x 3 % % % - % % ; h k y ` g.i.y.' r k x 1 - # ; <.y.",
"q.i.k.d.d.x.G.G.m.k.d.k.e.i j z 8 % - % - = * % g z p F 4.w.y.=.r k k 8 % $ O *.",
"w.q.u.d.d.d.z.G.V.V.l.d.g.s.b s c g % % = % % - - 0 x j k 3.q.w.,.k j l f % % O ",
":.w.w.e.d.f.d.k.V.G.U.l.d.f.f._ e k k = % = - - - % 8 x p G i.q.w.0.G s k h = % ",
"i +.y.w.w.s.f.d.h.V.V.G.c.d.d.k.| w k x 1 % % % % - % : ! g.g.i.q.w.w.! p k k , ",
"j r ' w.q.q.a.f.d.f.m.G.G.m.f.d.k.,.y k x 8 % - - % - $ n p.g.h.s.q.w.u.o.i k k ",
"H u w e.w.w.5.i.f.d.d.c.R.A.V.h.f.g.i.k j l f % % - * * $ X >.f.d.d.w.w.y.;.s k ",
"V.] t.k.d.w.q.q.u.f.g.C $.R.G.U.e.k.k.s.G p l g O # * % O 5 v.l.d.f.d.r.q.e.4.l ",
"V.U.l.d.f.d.e.q.q.u.K . X K A.%.q | k.s.y.! i y &.m o O V A.J.J.v.d.f.f.i.q.w.5.",
"V.V.V.v.d.d.d.i.q.w.q.B X O @ r l i W 5.y.y.o.-.l.g.K A J.A.A.A.V.m.d.d.d.a.q.w.",
"V.V.V.Z.m.d.d.h.a.w.w.y.U X % - f l s v 4.w.w.i.f.f.k.l.J.V.V.V.V.V.V.h.d.f.s.q.",
"V.V.V.V.V.V.h.d.f.s.q.q.u.} . % % 9 l k j :.y.5.y.d.f.d.k.J.A.V.V.V.V.V.h.d.g.d.",
"V.Z.V.V.V.V.V.l.d.f.d.e.q.y.-.& $ - 3 l k u o.y.5.w.a.h.s.f.A.V.V.V.V.V.L.v.d.d.",
"g.N.V.V.V.V.V.V.z.d.d.f.u.q.e.5.7 X - : k l p _ w.w.w.a.k.f.f.x.G.V.V.V.V.V.v.d.",
"d.d.x.L.A.A.V.V.A.v.d.d.h.i.w.w.w.S X % ; h x j F w.w.q.i.f.d.d.z.U.V.V.V.V.Z.n.",
"f.d.d.v.A.A.V.V.V.G.M.d.d.d.a.w.w.y.R X % % 0 x j x 3.y.q.y.d.f.d.j.A.V.V.V.V.V.",
"y.d.d.d.j.J.V.V.V.V.G.V.h.d.d.d.w.q.u.&.X $ - 8 k k r =.u.q.w.d.f.d.k.V.A.V.V.V.",
"w.w.d.d.d.h.V.G.V.V.V.V.G.j.d.d.d.y.q.y.,., # % 1 x k i ' y.q.q.s.f.d.f.N.Z.V.Z.",
"w.w.w.a.h.d.d.m.G.V.V.V.V.G.v.d.d.f.t.q.w.q.N o % , k k s Q w.w.q.i.h.d.d.c.A.Z.",
"M w.w.w.i.d.d.d.v.A.V.V.V.V.G.x.d.d.f.i.q.w.y.L . % % g k j b 5.w.q.r.f.d.d.z.Z.",
"+ 2 5.y.w.u.h.d.d.l.A.V.V.V.V.V.V.h.d.h.s.w.w.y.[ . % % 0 z k j :.y.w.e.d.d.d.j.",
"% $ O *.w.q.e.d.d.d.l.V.V.V.V.V.V.V.h.d.d.d.u.w.y.-.; = % 1 k k i o.w.q.w.s.d.f."
};
